<svg width="22" height="22" viewBox="0 0 22 22" fill="none" xmlns="http://www.w3.org/2000/svg">
<path fill-rule="evenodd" clip-rule="evenodd" d="M19.8103 0H7.5656C6.97251 0 6.59509 0.487139 6.59509 1.07984V1.11063C6.59509 1.71543 6.95931 2.19927 7.5645 2.19927H16.9714C17.4622 2.19927 17.7064 2.79747 17.3598 3.14276L0.318689 20.1453C-0.106046 20.5687 -0.106046 21.2582 0.317589 21.6815V21.6826C0.742324 22.106 1.43004 22.106 1.85258 21.6815L18.8651 4.63716C19.2117 4.29078 19.7993 4.536 19.7993 5.02534V14.3228C19.7993 14.921 20.2956 15.3949 20.8952 15.3949H20.9261C21.5257 15.3949 22 14.921 22 14.3228V2.21137C22 0.99627 21.0262 0 19.8103 0Z" fill="#7D00EB"/>
</svg>
