<svg width="88" height="62" viewBox="0 0 88 62" fill="none" xmlns="http://www.w3.org/2000/svg">
<g opacity="0.9">
<path d="M3.39266 54.5206L84.6073 28.5677C86.4663 27.9679 88 26.1683 88 24.5562V8.3697C88 6.76697 86.4663 5.93281 84.6073 6.53266L3.39266 32.4855C1.52205 33.0853 0 34.8849 0 36.497V52.6835C0 54.2863 1.52205 55.1204 3.39266 54.5206Z" fill="white"/>
<path d="M40.3633 20.6854C39.6429 19.5794 39.6661 18.0236 39.7823 17.2831C39.9217 16.3271 40.5375 15.4836 40.7467 14.5276C40.8745 13.9371 40.8861 13.281 40.4562 12.8405C40.1309 12.5031 39.6429 11.9033 39.4686 11.4252C39.306 10.9847 38.9342 10.8535 38.4113 10.9285C37.7258 11.0316 37.0287 10.3568 36.3664 10.3943C35.6693 10.4317 35.4602 11.0316 34.8211 11.2565C34.5539 11.3503 34.4261 11.6877 33.973 11.5096C33.8219 11.444 33.3456 11.041 33.2061 11.1347C32.8343 11.3971 33.0319 11.7814 32.5439 12.3156C31.9746 12.9249 30.9056 13.1967 30.0807 13.5622C29.3952 13.8621 28.6168 14.0121 27.9894 14.3683C25.9677 15.5023 25.8167 14.2839 27.6989 14.0308C28.3147 13.9559 28.5819 13.3373 29.0931 12.9998C29.3836 12.803 29.372 12.4281 29.2442 12.1001C29.0815 11.7064 28.8027 11.3221 28.1869 10.9379C27.9196 10.7785 27.9196 10.3568 28.4541 10.263C28.791 10.2068 29.1745 9.935 29.2093 9.65382C29.2442 9.41013 28.6516 9.3164 28.6284 8.89463C28.6051 8.55722 29.0815 8.47286 29.3836 8.23855C29.8948 7.85427 30.4177 8.29478 30.743 8.02298C31.0683 7.75117 30.406 7.30128 30.7778 7.06697C31.87 6.36402 32.8576 5.37052 34.1473 4.90189C34.6585 4.70506 35.0768 4.91126 35.6577 5.04248C36.2502 5.1737 37.1449 5.00499 37.7955 5.10809C38.33 5.19244 39.0968 4.85503 39.4802 4.57385C40.2819 3.98337 41.56 3.78655 42.3384 4.37806C42.594 4.58426 43.0356 4.46242 43.3841 4.54677C43.8721 4.66862 44.3149 4.94979 44.8248 4.99666C45.3244 5.04352 45.824 4.83732 46.3236 4.85607C46.7884 4.86544 47.2067 5.09976 47.6598 5.09038C48.1013 5.08101 48.5312 4.66862 48.9379 4.8092C49.5653 5.0154 50.1462 5.39968 50.4018 5.83082C50.5412 6.06514 51.2848 6.09326 51.3545 5.86831C51.4823 5.5309 51.4591 4.82795 52.133 4.99666C52.9579 5.19348 53.4575 5.79333 54.0501 6.28071C54.2941 6.47753 54.6542 6.74934 54.3522 7.24609C54.2244 7.46166 54.4916 7.70535 54.7472 7.82719C54.9912 7.93967 55.2817 7.43354 55.5605 7.38668C56.0369 7.3117 56.5597 7.7241 56.6643 8.05214C56.7456 8.3052 56.246 8.68948 55.9091 8.84881C54.9679 9.2987 54.1198 9.58925 53.411 10.2162C53.0392 10.563 53.2949 11.2003 53.4691 11.5846C53.7015 12.0813 54.6194 12.2032 55.1538 12.5125C55.8742 12.9155 56.4784 13.3748 57.2452 13.7028C57.6635 13.8902 58.3141 14.2089 58.6395 13.9371C58.9532 13.6934 58.2677 13.2998 58.1747 12.953C58.105 12.6624 57.954 12.2875 58.1747 12.0532C58.593 11.6314 58.2328 10.9379 58.4071 10.413C58.5581 9.935 59.1623 10.2912 59.569 10.4036C59.8594 10.4786 60.2428 10.2818 60.4984 10.3661C61.2304 10.5911 61.4279 11.3034 61.9392 11.772C62.4736 12.2688 62.1948 12.878 62.7189 13.5341L72.4308 10.4224C65.3783 4.03961 55.119 0 43.7443 0C22.575 0 5.32129 13.9277 5.32129 30.9953C5.32129 31.2859 5.32129 31.5764 5.33291 31.867L6.4483 31.5108C6.71553 21.5102 11.2933 15.3524 17.2653 10.4505C18.9152 10.2724 20.0073 9.76629 20.902 9.38201C21.297 9.2133 21.7966 9.39138 22.2265 9.44762C22.8423 9.5226 23.5975 9.43825 24.0506 9.78503C24.5037 10.1412 23.9693 10.3286 23.6323 10.5255C22.7493 11.0222 21.9941 11.4627 21.4016 11.7252C20.9484 11.922 20.1467 12.9811 20.658 12.9998C21.4248 13.0373 21.7385 13.3935 20.658 13.9371C19.682 14.4339 19.1475 15.2118 18.5898 16.0178C18.3807 16.3178 18.4272 16.6833 18.4272 17.0207C18.4272 17.4519 18.5317 17.8736 18.5898 18.2954C18.6712 18.9796 18.4736 19.5607 17.7649 19.8419C17.0445 20.1231 16.3823 20.3855 16.1964 19.7107C15.8246 18.4172 16.2312 17.5924 16.7657 17.0207C17.2421 16.5333 16.2661 15.9335 15.7781 16.4209C15.5806 16.6177 15.0926 17.18 14.8719 16.8239C14.6743 16.5146 13.6519 17.808 12.9664 18.5016C11.9904 19.4857 11.8394 20.7323 11.3165 21.9226C11.3398 22.3256 11.5838 22.5412 12.0601 22.5881C12.246 22.41 12.4435 22.2319 12.6294 22.0538C12.5249 23.1879 12.2344 24.1345 11.9788 24.9312C11.5024 26.4027 10.1314 26.712 9.65506 27.7524C9.08574 29.0083 9.07413 29.955 9.22517 30.6298L12.1763 29.6925C12.3738 29.3457 12.5365 28.9896 12.5946 28.6147C12.7108 27.8836 12.9315 27.1994 13.1058 26.4871C13.9424 27.0776 14.9299 26.8432 15.6271 27.0213C16.2545 27.1807 16.6147 27.6587 16.9284 28.1742L40.3633 20.6854V20.6854ZM56.2228 37.6218C56.2228 38.7559 56.5016 39.9837 57.6867 40.7616C59.1391 41.7082 59.1042 41.2958 59.569 41.7551C60.0221 42.2144 60.1847 44.0139 60.0337 45.4198C59.8943 46.8257 59.5341 48.1379 58.744 49.4032C57.9656 50.6685 58.3606 51.8963 58.1863 53.0116C58.0004 54.127 57.1987 53.2085 57.2685 54.9799C57.3382 56.7513 57.1406 56.0671 57.3149 56.6576C57.4892 57.2387 57.6519 57.6417 58.2793 57.5761C58.9067 57.5011 59.0113 56.6576 59.4528 56.2921C59.8943 55.9172 60.3474 55.8141 60.603 55.3548C60.8586 54.8955 60.3358 53.8739 60.7889 53.6021C61.2304 53.3397 62.6711 52.1494 63.101 51.6151C63.5309 51.0903 62.95 50.9028 63.2869 50.7716C63.8811 50.5253 64.41 50.1879 64.8438 49.7781C65.3667 49.2626 66.2846 49.6281 66.9236 48.8596C67.5626 48.091 66.5053 48.1379 67.0514 47.688C67.5975 47.2475 68.1435 47.8942 69.898 46.6289C71.6524 45.3636 70.5486 45.298 71.3968 44.6231C72.2449 43.9483 74.0226 43.4516 74.8359 42.5143C75.6608 41.577 75.0915 40.4429 75.6492 39.4026C76.2069 38.3528 78.5423 37.5468 78.1356 36.3283C77.7406 35.1099 75.2658 34.8006 74.3363 33.854C73.8018 33.3104 73.5346 32.7386 73.3139 32.1669L82.1092 29.3645C82.1441 29.8987 82.166 30.4423 82.166 30.9953C82.166 48.0723 64.9006 62 43.743 62C32.0081 62 21.4816 57.7167 14.4174 50.9965L21.7024 48.6627C22.4576 49.1782 23.4452 49.6562 23.8634 50.3217C24.2817 50.9684 24.0958 51.7463 23.9796 52.5711C23.9099 52.9929 24.0842 53.3116 24.5257 53.5365C24.8975 53.724 25.2809 53.4896 25.734 53.3959C25.9199 53.3584 25.8502 53.7146 26.1407 53.7146C27.1399 53.724 27.9416 53.1241 28.9059 53.0679C29.7192 53.0304 30.3467 53.3772 30.8579 53.7427C31.1019 53.902 31.1948 54.3707 31.5085 54.4082C31.8687 54.455 32.1476 54.0416 32.5077 53.9958C32.7517 53.977 33.1119 54.1176 33.1584 54.3051C33.2049 54.5019 32.6936 54.7831 32.8563 54.933C33.1235 55.1861 33.4372 55.4017 33.658 55.7766C33.8206 56.0484 34.0995 55.6547 34.4713 55.712C34.8315 55.7589 35.0406 56.0119 35.4705 56.039C35.9236 56.0671 36.2257 55.6454 36.4697 55.3454C36.7369 55.0268 37.1901 54.9986 37.4224 54.5862C37.5502 54.3707 37.8059 54.2769 38.015 54.1176C38.166 54.0051 38.5959 53.7615 38.5959 53.4803C38.5843 53.0679 38.6075 52.8711 38.5843 52.4587C38.5495 51.8296 38.41 51.2965 38.0382 50.7435C37.6897 50.2373 37.039 50.0874 36.6905 49.5063C36.5394 49.2438 36.7253 48.8221 36.6324 48.5503C36.551 48.3347 35.9933 48.1837 36.0747 47.9681C36.2141 47.5651 35.8074 47.4058 35.8423 47.0683C35.8772 46.656 35.5983 46.2154 35.3659 46.3185C34.785 46.5903 34.2738 47.2558 34.0182 47.8567C33.9136 48.1191 33.6347 48.4565 33.2862 48.4659C32.7982 48.4753 32.2986 48.091 31.9617 47.8005C31.2762 47.2287 30.7185 46.6008 30.1491 45.9634L56.2228 37.6218V37.6218Z" fill="#333333"/>
<path d="M14.5694 21.9414C13.2914 22.4756 12.6407 24.1346 13.2565 25.3812C13.698 26.2903 14.6507 26.2434 15.0225 25.4655C15.2317 25.025 15.1736 24.4533 15.0225 23.9097C14.8366 23.2348 14.1163 23.4879 14.5694 21.9414ZM42.0824 55.0549C42.3032 54.8675 42.5704 55.158 42.7331 55.5423C42.8028 55.7016 43.1862 55.5611 43.3256 55.6735C43.5231 55.8235 43.9066 56.189 43.6509 56.2734C43.1862 56.414 42.7331 56.7795 42.5123 56.9951C42.3264 57.1825 41.9895 56.5546 42.0824 56.2734C42.1405 56.0859 42.2102 55.9828 42.1638 55.7673C42.1057 55.4861 41.8384 55.2611 42.0824 55.0549ZM40.8044 57.145C41.1065 56.8545 41.5828 57.3137 41.5944 57.5668C41.6061 58.2697 40.8857 58.5322 40.3977 58.5978C40.4558 59.0102 39.933 58.9446 39.4798 58.7946C38.7711 58.5697 39.0964 57.7917 39.5263 57.9604C39.6541 58.0073 40.4907 57.4543 40.8044 57.145ZM5.05371 50.1437L5.25123 35.0444C7.55173 34.3414 9.86384 33.6291 12.176 32.9168C13.6748 32.4294 15.0922 32.7949 15.1968 34.2477C15.1736 35.5692 15.162 36.9001 15.1387 38.2217C15.0109 39.2433 14.4184 39.7682 13.5005 39.965C14.3254 39.9837 15.0109 40.2274 15.0458 40.8835V45.1106C14.9761 46.7601 14.1395 47.3225 12.815 47.7255L5.05371 50.1437Z" fill="#333333"/>
<path d="M8.57422 46.4138L8.62069 42.7866L11.8042 41.9149L11.7577 45.3828L8.57422 46.4138ZM8.65555 40.2747L8.70202 36.9474L11.8855 35.9258L11.8391 39.2437L8.65555 40.2747Z" fill="white"/>
<path d="M17.9043 46.1325L18.1005 31.0707L25.8631 28.6994L25.8282 31.7362L21.4829 33.0015L21.4351 36.2256L25.4797 35.0072L25.4564 37.5659L21.4015 38.8406L21.355 42.4585L25.8399 40.9963L25.805 43.7144L17.9043 46.1325ZM64.3906 31.7549L64.5998 16.7024L72.361 14.3218L72.3146 17.3679L67.9692 18.6332L67.9227 21.8574L71.9776 20.639L71.9428 23.1977L67.8879 24.4724L67.8414 28.0902L72.3262 26.6281L72.2913 29.3461L64.3906 31.7549ZM75.1495 13.497L74.952 28.362L82.7714 25.897L82.8062 23.282L78.4609 24.7067L78.6235 12.4473L75.1495 13.497ZM53.3761 20.2172L62.9732 17.2554L62.9383 20.1047L59.6037 21.1826L59.4411 33.1608L56.1878 34.1824L56.3505 22.0917L53.3529 23.0571L53.3761 20.2172ZM41.4786 23.8819L45.0223 22.7853L44.9526 28.3808L48.1593 27.4716L48.2291 21.8293L51.796 20.7046L51.5985 35.6633L48.0664 36.713L48.1477 30.5739L44.8351 31.5393L44.7551 37.7065L41.2578 38.85L41.4786 23.8819ZM28.8723 30.0303C29.0234 28.3995 29.918 27.5091 31.2193 27.0498C32.6716 26.6 34.1356 26.1501 35.5879 25.7002C37.4237 24.9597 38.8876 25.7095 38.8295 27.1998L38.7947 29.946C37.6328 30.3115 36.4709 30.6677 35.2975 31.0332C35.3091 30.4802 35.3207 29.9366 35.3207 29.393C35.3439 28.9993 35.2858 28.69 34.6817 28.9244C34.0543 29.1118 33.4152 29.2993 32.7878 29.4867C32.3115 29.6367 32.1837 29.9272 32.1953 30.1803L32.0907 38.5126C32.0791 39.0281 32.2301 39.2061 32.7297 39.0468C33.4617 38.7844 34.1937 38.5126 34.914 38.2501C35.158 38.1002 35.3439 37.8752 35.3556 37.491L35.3904 35.4383C36.5058 35.1103 37.6212 34.7916 38.7366 34.473C38.7134 35.5414 38.7017 36.6203 38.6901 37.6972C38.8295 38.9812 37.7722 39.7404 36.3896 40.3684C34.7514 40.8745 33.1248 41.3806 31.4865 41.8961C29.8134 42.3366 28.7329 41.9992 28.7329 40.3027L28.8723 30.0303Z" fill="#333333"/>
</g>
</svg>
