<svg width="144" height="36" viewBox="0 0 144 36" fill="none" xmlns="http://www.w3.org/2000/svg">
<g opacity="0.9">
<path d="M143.88 0.171548L143.952 0.024508H131.328C127.608 0.024508 124.44 0.808715 121.824 2.35262C119.208 3.92104 117.336 6.07761 116.184 8.89586C115.464 10.6848 115.248 12.3023 115.56 13.7726C115.92 15.3166 116.856 16.3948 118.344 17.081C119.712 17.6937 121.992 17.9878 125.208 17.9878H136.608L137.736 15.145H131.328C128.232 15.145 126.168 14.7284 125.136 13.9197C124.008 13.0375 124.128 11.0034 125.016 8.84684C126.552 5.12186 129.744 2.79374 134.184 2.79374H139.152L138 5.58748H141.792L144 0.196053H143.88V0.171548ZM99.672 10.7829L107.352 3.16133L108.936 10.7829H99.672ZM34.368 10.8074L41.856 3.50443L43.2 10.8074H34.368ZM106.704 0L102.024 0.024508L84.024 17.2281L91.056 0.049016H83.352L74.04 7.49898L69.24 11.518H69.024L71.28 5.661L68.52 0.024508H60.768L53.736 17.2281L49.656 0.024508H41.16L22.416 17.9633H27.096L31.896 13.2825H43.704L44.64 17.9633H57.192L61.728 6.86181C61.968 6.29817 62.184 5.661 62.4 4.95031C62.424 5.53847 62.568 6.15113 62.856 6.7883L66.84 16.0517H67.512L78.936 6.83731C79.368 6.49422 80.016 5.85705 80.88 4.95031C80.448 5.78353 80.136 6.4207 79.944 6.86181L75.408 17.9633H83.688H92.424L97.152 13.258H109.416L110.4 17.9633H114.72L110.52 0H106.704ZM24.504 13.7481C26.016 12.2777 27.12 10.6603 27.864 8.87135C29.016 6.07761 28.92 3.89653 27.576 2.32812C26.232 0.784207 23.688 0 19.968 0H7.368L6.216 2.81825H14.904C19.344 2.81825 20.616 5.07284 19.08 8.79782C18.192 10.9544 17.424 12.9394 15.576 13.8217C13.896 14.6304 12.144 14.8754 9.048 14.8754H5.04L8.04 7.62152H4.248L0 17.9633H11.424C14.64 17.9633 17.16 17.6692 19.032 17.0565C21.072 16.3703 22.896 15.292 24.504 13.7481Z" fill="#333333"/>
<path d="M110.016 35.8774V32.6425L112.512 28.3049H111.432L110.376 30.3879C110.088 30.9516 109.848 31.4662 109.632 31.9563H109.608C109.368 31.4172 109.152 30.9761 108.864 30.3879L107.808 28.3049H106.728L109.08 32.667V35.8774H110.016ZM102.336 29.0891C102.48 29.0401 102.816 28.9911 103.272 28.9911C104.28 28.9911 104.976 29.4322 104.976 30.4124C104.976 31.2702 104.328 31.8583 103.296 31.8583H102.312V29.0891H102.336ZM101.376 35.8774H102.336V32.5935H103.248C104.112 32.618 104.52 33.0101 104.736 34.0639C104.952 34.9952 105.12 35.6568 105.24 35.8774H106.224C106.08 35.5833 105.888 34.8481 105.648 33.7943C105.48 33.0101 105.12 32.471 104.568 32.2749V32.2504C105.36 31.9809 105.96 31.3192 105.96 30.3144C105.96 29.7263 105.744 29.2116 105.384 28.8685C104.928 28.4519 104.256 28.2559 103.248 28.2559C102.6 28.2559 101.904 28.3049 101.4 28.4029V35.8774H101.376ZM94.0316 28.3049V32.7651C94.0316 35.1177 95.1836 35.9999 96.6956 35.9999C98.3036 35.9999 99.5036 35.0442 99.5036 32.7161V28.3049H98.5436V32.7896C98.5436 34.456 97.8476 35.2157 96.7436 35.2157C95.7596 35.2157 95.0156 34.505 95.0156 32.7896V28.3049H94.0316ZM92.7116 35.8774L90.4076 31.9809L92.6636 28.3049H91.5596L90.5516 30.0693C90.2876 30.5595 90.0956 30.9026 89.8796 31.3437H89.8556C89.6636 30.9516 89.4476 30.5595 89.1836 30.0693L88.1996 28.3049H87.0956L89.2796 32.0544L87.0236 35.8774H88.1276L89.0156 34.211C89.3996 33.5493 89.6156 33.1327 89.8076 32.7161H89.8316C90.0716 33.1572 90.3116 33.5738 90.6956 34.211L91.6316 35.8774H92.7116ZM80.1836 28.3049V32.7651C80.1836 35.1177 81.3356 35.9999 82.8476 35.9999C84.4556 35.9999 85.6556 35.0442 85.6556 32.7161V28.3049H84.6956V32.7896C84.6956 34.456 83.9996 35.2157 82.8956 35.2157C81.9116 35.2157 81.1676 34.505 81.1676 32.7896V28.3049H80.1836ZM75.1916 35.8774H79.3196V35.0687H76.1516V28.3294H75.1916V35.8774ZM71.0636 31.5152H68.1836V29.1136H71.2316V28.3049H67.2236V35.8774H71.3996V35.0687H68.1836V32.3485H71.0636V31.5152ZM59.8316 28.3049V35.8774H60.7916V32.3239H64.3676V35.8774H65.3276V28.3049H64.3676V31.4662H60.7916V28.3049H59.8316ZM55.5596 35.8774H56.5196V29.1381H58.7756V28.3049H53.2796V29.1381H55.5356V35.8774H55.5596ZM50.4716 31.5152H47.5916V29.1136H50.6396V28.3049H46.6316V35.8774H50.8076V35.0687H47.5916V32.3485H50.4716V31.5152ZM42.9596 35.8774L45.5996 28.3049H44.5676L43.3196 32.0544C42.9836 33.0346 42.6716 33.9904 42.4796 34.8726H42.4556C42.2636 33.9904 41.9756 33.0591 41.6636 32.0544L40.5116 28.3294H39.4796L41.9036 35.9019H42.9596V35.8774ZM37.4156 35.8774H38.3756V28.3049H37.4156V35.8774ZM32.0156 35.8774H36.1436V35.0687H32.9756V28.3294H32.0156V35.8774Z" fill="#333333"/>
</g>
</svg>
