<svg width="16" height="16" viewBox="0 0 16 16" fill="none" xmlns="http://www.w3.org/2000/svg">
<path fill-rule="evenodd" clip-rule="evenodd" d="M4.69572 0.0981815C3.39342 0.156942 2.26464 0.47536 1.35319 1.38297C0.43855 2.29534 0.124118 3.42847 0.0652113 4.71723C0.0285939 5.52161 -0.185538 11.5985 0.435366 13.1922C0.854078 14.2674 1.67877 15.094 2.76376 15.5141C3.27003 15.711 3.84795 15.8444 4.69572 15.8833C11.7844 16.2041 14.4121 16.0294 15.5201 13.1922C15.7168 12.6872 15.8521 12.1099 15.8895 11.2642C16.2135 4.15741 15.837 2.61694 14.6015 1.38297C13.6216 0.405482 12.469 -0.259939 4.69572 0.0981815ZM4.76086 14.4546C3.98473 14.4197 3.56363 14.2902 3.28263 14.1815C2.57576 13.9067 2.0448 13.3779 1.77177 12.6751C1.29892 11.4642 1.45574 5.71282 1.49793 4.78218C1.53932 3.8706 1.724 3.03763 2.3672 2.39444C3.16323 1.60038 4.1917 1.21129 11.1944 1.52733C12.1082 1.56862 12.9433 1.75284 13.588 2.39444C14.3841 3.1885 14.7789 4.22475 14.4573 11.2006C14.4223 11.9748 14.2925 12.3948 14.1835 12.6751C13.4631 14.5213 11.8057 14.7778 4.76086 14.4546ZM11.2719 3.75235C11.2719 4.27802 11.6993 4.70522 12.2271 4.70522C12.7549 4.70522 13.1831 4.27802 13.1831 3.75235C13.1831 3.22668 12.7549 2.79948 12.2271 2.79948C11.6993 2.79948 11.2719 3.22668 11.2719 3.75235ZM3.8901 7.99024C3.8901 10.2422 5.72018 12.0677 7.97772 12.0677C10.2353 12.0677 12.0653 10.2422 12.0653 7.99024C12.0653 5.73829 10.2353 3.91354 7.97772 3.91354C5.72018 3.91354 3.8901 5.73829 3.8901 7.99024ZM5.32448 7.99035C5.32448 6.52928 6.51216 5.34375 7.97765 5.34375C9.44314 5.34375 10.6308 6.52928 10.6308 7.99035C10.6308 9.45221 9.44314 10.6377 7.97765 10.6377C6.51216 10.6377 5.32448 9.45221 5.32448 7.99035Z" fill="white"/>
</svg>
