<svg width="144" height="34" viewBox="0 0 144 34" fill="none" xmlns="http://www.w3.org/2000/svg">
<path d="M16.608 0C7.44 0 0 7.61561 0 17C0 26.3844 7.44 34 16.608 34C25.776 34 33.216 26.3844 33.216 17C33.216 7.61561 25.776 0 16.608 0Z" fill="white"/>
<path d="M18.8398 2.65267C18.8158 2.65267 18.8158 2.65267 18.8158 2.65267C18.7918 2.7018 18.5758 3.09487 18.2398 3.80729C18.1198 4.07752 18.0238 4.22492 17.9758 4.27406C17.9278 4.27406 17.8798 4.27406 17.8558 4.27406C17.8318 4.24949 17.8078 4.22493 17.8078 4.20036C17.8078 4.20036 17.7838 4.12665 17.7358 4.00382C17.3038 2.50527 17.0638 1.67001 17.0158 1.52261C16.9438 1.27695 16.7998 1.12955 16.6078 1.08041C16.5838 1.05585 16.5838 0.908449 16.6078 0.908449C16.6558 0.859316 18.0718 0.90845 18.3358 0.982149C18.3358 0.982149 18.3358 1.05585 18.3118 1.15412H18.1918C18.1198 1.15412 17.8318 1.27694 17.9278 1.54718L18.3358 2.80007C18.3358 2.80007 18.3358 2.80007 18.3598 2.80007C18.4078 2.75093 18.5518 2.45614 18.8158 1.94024C19.0798 1.42434 19.2478 1.12955 19.2718 1.08041C19.3678 1.08041 19.4398 1.10498 19.4638 1.15412C19.4638 1.15412 19.5598 1.59631 19.7278 2.45614C19.8238 2.89833 19.8718 3.144 19.8958 3.2177C19.9198 3.19313 19.9438 3.19313 19.9678 3.16856C19.9678 3.16856 20.1598 2.87377 20.4718 2.33331C20.5918 2.13677 20.6639 2.01394 20.6639 1.94024C20.6879 1.76828 20.5439 1.62088 20.3999 1.57174L20.4478 1.39978C20.5198 1.39978 21.5039 1.71915 21.6479 1.76828C21.6479 1.79285 21.6479 1.84198 21.6239 1.89111L21.5999 1.94024V1.96481C21.3839 1.89111 21.1919 1.96481 20.9999 2.21047C20.9519 2.28417 20.7358 2.6281 20.3518 3.26683C20.0398 3.78272 19.8478 4.12665 19.7758 4.24949C19.6558 4.44602 19.5838 4.56885 19.5598 4.61798C19.4638 4.61798 19.3918 4.59342 19.3438 4.54429C19.3438 4.51972 19.2478 4.20036 19.1038 3.56163C18.9358 2.9229 18.8638 2.65267 18.8398 2.65267Z" fill="#333333"/>
<path d="M8.85552 4.76552L8.95152 4.71639C9.31152 4.56899 9.67153 4.61812 10.0075 4.86379C10.1275 4.93748 10.2955 5.06032 10.5115 5.23228C10.6795 5.35512 10.8235 5.40425 10.9195 5.35512L10.9915 5.33055H11.0155C11.0635 5.40425 11.0875 5.47795 11.0875 5.50252C11.0635 5.50252 11.0155 5.55165 10.8955 5.60078C10.6315 5.72361 10.3915 5.87101 10.1755 5.99385C10.1035 6.04298 10.0555 6.04298 10.0555 6.04298L9.95952 5.99385C9.28752 5.57622 8.92752 5.35512 8.85552 5.35512C8.68752 5.33055 8.51953 5.50252 8.66353 5.74818C8.66353 5.74818 8.68752 5.77275 8.73552 5.82189C8.75952 5.84645 8.78352 5.89558 8.85552 5.99385C9.07152 6.31321 9.38353 6.36234 9.50353 6.21494H9.52752C9.55152 6.26408 9.57553 6.28865 9.57553 6.31322L9.59952 6.33778C9.59952 6.33778 9.59952 6.33778 9.59952 6.36234C9.57552 6.38691 9.47953 6.46061 9.33553 6.55888C9.02352 6.77998 8.71152 7.02564 8.44752 7.27131L8.37552 7.34501H8.35152C8.35152 7.34501 8.25552 7.22217 8.23152 7.22217V7.1976L8.27952 7.14848C8.35152 7.05021 8.35152 6.90281 8.27952 6.70627C8.25552 6.63257 7.91952 6.19038 7.27152 5.37968C7.10352 5.15858 6.98352 5.01118 6.93552 4.98662C6.79152 4.86379 6.62352 4.81465 6.50352 4.88835L6.43152 4.93749H6.40752C6.33552 4.86379 6.31152 4.83922 6.31152 4.81466C6.74352 4.39703 7.67952 3.68459 7.70352 3.68459H7.72752C7.82352 3.78286 7.84752 3.832 7.82352 3.85656L7.72752 3.90569C7.63152 3.95483 7.60752 4.07766 7.63152 4.22506C7.65552 4.34789 7.70352 4.47072 7.79952 4.61812C7.79952 4.61812 7.84752 4.69182 7.91952 4.79009C7.94352 4.81466 8.06352 4.98662 8.27952 5.30599H8.32752C8.32752 5.28142 8.75953 3.88113 8.78352 3.85656C8.80753 3.6846 8.75953 3.56177 8.66353 3.48807C8.59153 3.43893 8.49552 3.43893 8.39952 3.48807C8.35152 3.51263 8.35152 3.51263 8.32752 3.51263C8.25552 3.43893 8.23152 3.34067 8.23152 3.34067C8.23152 3.34067 9.55153 2.5791 9.62353 2.5791C9.69553 2.67737 9.71953 2.75107 9.69553 2.75107L9.59952 2.82477C9.50352 2.89847 9.43152 3.04586 9.33553 3.29153C9.09553 3.97939 8.92752 4.49529 8.85552 4.76552Z" fill="#333333"/>
<path d="M15.7676 3.07007C15.7676 3.07007 15.5996 3.09464 15.5756 3.09464L15.4796 3.02093C15.0716 2.65243 14.5676 2.79983 14.4716 2.8981C14.3996 2.9718 14.3756 3.09463 14.3996 3.2666C14.4716 3.68423 14.5436 4.12643 15.3356 3.9299C16.0076 3.75793 16.3436 3.16834 16.4636 2.9718C16.5116 2.9718 16.5356 2.99637 16.5596 2.99637L16.6076 3.02093H16.6316L16.3436 4.17557C16.3436 4.17557 16.1516 4.20013 15.7916 4.20013C15.0956 4.24927 14.3996 4.34753 13.7036 4.5195C13.5596 4.54406 13.4876 4.56863 13.4876 4.56863C13.4876 4.56863 13.4876 4.56863 13.4636 4.56863L13.4156 4.42123C13.4156 4.42123 13.4156 4.42123 13.4156 4.39666L13.5116 4.34754C13.6076 4.27384 13.6556 4.12643 13.6316 3.90533C13.6316 3.88077 13.5836 3.65967 13.4876 3.29117C13.4636 3.21747 13.4636 3.16834 13.4396 3.09464C13.2956 2.4559 13.2236 2.06284 13.1756 1.96457C13.0796 1.66977 12.9116 1.54693 12.6476 1.5715C12.6476 1.52237 12.6236 1.47323 12.6236 1.44867L12.5996 1.39954C13.5596 1.12931 14.6396 0.957336 15.7916 0.908203C15.8156 0.93277 16.1996 1.81717 16.1996 1.84174V1.8663L16.0316 1.94C16.0316 1.94 16.0316 1.94 16.0076 1.94C15.6716 1.52237 15.2156 1.30127 14.6396 1.27671C14.1596 1.27671 14.0636 1.4241 14.1356 1.74347C14.2076 2.13654 14.2556 2.35763 14.2796 2.40677C14.4716 2.7507 15.2156 2.50504 15.4076 2.0874L15.4556 1.98914C15.4556 1.96457 15.4796 1.96457 15.5516 1.94C15.5756 1.94 15.6236 1.94 15.6476 1.94C15.6716 2.0137 15.7676 3.0455 15.7676 3.07007Z" fill="#333333"/>
<path d="M24.6476 6.9769C24.6476 6.9769 24.6236 6.95234 24.5996 6.9032C24.5036 6.73124 24.5756 6.48557 24.8396 6.14164C24.9116 6.04338 25.1276 5.74858 25.5116 5.23268C25.6316 5.08528 25.7036 4.96245 25.7516 4.91332L25.8236 4.83962L25.8716 4.74135C26.0396 4.47112 26.3996 4.56939 26.5196 5.18355C26.5436 5.33095 26.5436 5.47835 26.5196 5.65031C26.4956 5.72401 26.4956 5.77315 26.4956 5.77315C26.5916 5.82228 26.6636 5.82228 26.7116 5.79771C26.7596 5.69945 26.8316 5.42922 26.9516 4.96246L26.9756 4.86418C26.9756 4.83962 26.3516 4.29916 25.9916 4.02893C25.4156 3.6113 24.9596 3.29193 24.6716 3.14453L23.8556 3.63586H23.8316L23.9276 3.8324H23.9516L24.0716 3.78326C24.5036 3.6113 25.0316 3.685 25.1276 3.8324C25.1756 3.95523 25.1516 4.10263 24.9836 4.32373C24.7916 4.56939 24.5276 4.93789 24.1676 5.42922C23.9516 5.72401 23.8316 5.87141 23.7836 5.92055C23.6396 6.04338 23.4236 6.09251 23.2796 5.96967C23.2556 5.96967 23.2076 6.01881 23.1836 6.09251V6.11708L23.2796 6.16621C23.5436 6.31361 23.8316 6.53471 24.1676 6.80494C24.3836 6.97691 24.4796 7.0506 24.5036 7.07517C24.5276 7.0506 24.5516 7.02603 24.5756 6.9769H24.6476Z" fill="#333333"/>
<path d="M20.9995 4.81516C20.9995 4.81516 21.0235 4.81516 21.0475 4.81516C21.1675 4.86429 21.3596 4.71689 21.4556 4.54493C21.5037 4.47123 21.7197 3.9799 22.1039 3.04637C22.2239 2.77614 22.2719 2.60418 22.2959 2.53048C22.3199 2.28481 22.2719 2.11285 22.1039 2.03915C22.1039 2.01458 22.1039 1.94089 22.1519 1.86719C22.1999 1.86719 23.4723 2.40765 23.7604 2.60418C23.7604 2.62875 23.7364 2.67788 23.6884 2.72701C23.6884 2.72701 23.6644 2.72701 23.6404 2.70244C23.4243 2.60418 23.2323 2.75158 23.1122 2.94811C23.1122 2.97268 23.0402 3.09551 22.9442 3.34117C22.7521 3.78337 22.56 4.201 22.368 4.59406C22.2719 4.7906 22.2239 4.91342 22.2239 4.98712C22.1999 5.18365 22.2719 5.33105 22.416 5.38019C22.416 5.42932 22.392 5.47845 22.344 5.55215C22.344 5.55215 22.2239 5.50302 22.0318 5.40475C21.7437 5.25735 21.4796 5.13452 21.2636 5.03626C21.0955 4.96256 20.9995 4.91342 20.9755 4.91342C20.9515 4.93799 20.9995 4.81516 20.9995 4.81516Z" fill="#333333"/>
<path d="M10.416 2.43193C10.368 2.43193 10.32 2.43193 10.296 2.43193L10.248 2.4565C10.248 2.4565 10.248 2.4565 10.224 2.4565C10.224 2.4565 10.224 2.4565 10.2 2.4565L10.1279 2.3091V2.28453C10.368 2.13714 11.7605 1.59668 11.9046 1.59668C11.9526 1.67038 11.9766 1.71951 11.9526 1.76865C11.6405 1.86691 11.5684 2.08801 11.6885 2.4565C11.6885 2.48107 11.7125 2.55476 11.7605 2.65303C11.9526 3.11979 12.0966 3.56199 12.2407 3.95505C12.3367 4.17615 12.4087 4.34811 12.4808 4.42181C12.5288 4.47094 12.6008 4.52008 12.6488 4.54464C12.6968 4.56921 12.7448 4.56921 12.7448 4.56921C12.7929 4.54464 12.8409 4.54464 12.8649 4.54464C12.9129 4.59378 12.9369 4.66747 12.9369 4.74117C12.9369 4.74117 12.7929 4.79031 12.5288 4.88857C12.2887 4.96227 12.0246 5.08511 11.7365 5.20794C11.5924 5.25707 11.5204 5.3062 11.5204 5.3062C11.4964 5.25707 11.4484 5.1588 11.4484 5.13423L11.5204 5.06054C11.5924 4.98684 11.6165 4.74118 11.5444 4.56921C11.4724 4.42181 11.3043 3.97962 10.9922 3.29176C10.9922 3.26719 10.9202 3.14436 10.8242 2.89869C10.7762 2.77586 10.7281 2.6776 10.6561 2.62847C10.6081 2.48107 10.5121 2.43193 10.416 2.43193Z" fill="#333333"/>
<path d="M28.1998 17.0239C28.1998 23.5831 23.0158 28.9141 16.5838 28.9141C10.1758 28.9141 4.96777 23.6077 4.96777 17.0239C4.96777 10.4646 10.1518 5.15829 16.5838 5.15829C23.0158 5.13372 28.1998 10.4646 28.1998 17.0239Z" fill="#333333"/>
<path d="M15.2874 27.3915C15.3594 27.3915 15.3834 27.3915 15.3834 27.3915C15.4554 27.3669 15.5034 27.2687 15.5034 27.1213C15.5034 25.0331 15.5034 19.5793 15.5274 19.5548L15.5754 19.4565C15.5754 19.4565 15.8634 18.7441 16.1034 18.1791C16.1274 18.2036 16.1274 18.2036 16.1514 18.2282C16.1754 18.2528 16.2234 18.4247 16.2954 18.7441C16.3434 18.9652 18.3354 26.9493 18.3354 26.9493C18.3594 27.0721 18.3834 27.1458 18.3834 27.1704C18.4314 27.2687 18.5274 27.3178 18.6474 27.2932C18.8634 27.2687 19.9434 26.9493 20.0634 26.8265C20.1354 26.7528 20.1594 26.6545 20.1354 26.5317L20.1114 26.4334C19.8474 25.3525 17.4954 15.8207 17.3754 15.4276L17.3514 15.3293C17.3274 15.2802 20.2074 8.35246 20.4474 7.71374C20.4954 7.56634 20.5194 7.46807 20.4714 7.39437C20.3994 7.27154 19.0554 6.75564 18.8874 6.85391C18.8394 6.87848 18.7914 6.95218 18.7194 7.12414C18.6474 7.29611 15.7194 14.3713 15.6474 14.5187L15.5994 14.6169L15.5514 14.7152C15.5514 14.7152 15.5274 14.7397 15.5034 14.7397C15.5034 14.7152 15.4794 6.82935 15.4794 6.80478C15.4554 6.68195 15.3834 6.63281 15.2634 6.63281C14.9754 6.63281 13.7994 6.95218 13.7034 7.02588C13.6314 7.07501 13.6074 7.19784 13.6074 7.4435C13.6074 8.42616 13.6314 26.0895 13.6314 26.2369C13.6074 26.6299 13.6314 26.8756 13.6554 26.9247C13.7754 27.0721 15.0234 27.3669 15.2874 27.3915Z" fill="white"/>
<path d="M20.8803 26.2128C21.0963 26.262 22.2243 25.7461 23.1123 25.0582C23.6883 24.5914 23.8323 24.4932 24.1683 24.051C24.7683 23.2894 25.0563 22.3559 25.0563 21.2258C25.0563 18.8183 25.0563 17.5654 25.0323 17.4672C24.9123 16.3617 24.0483 15.8703 23.3763 15.8458C23.2803 15.8458 23.0883 15.8458 22.8003 15.8458C22.5843 15.8458 22.4403 15.7475 22.3443 15.5755C22.3203 15.5018 22.2963 15.4036 22.2963 15.2316C22.2723 12.4556 22.2723 11.0307 22.2963 10.9325C22.3203 10.6868 22.5843 10.4903 22.8723 10.7359C22.9683 10.8096 23.5203 11.4484 24.0243 12.3082C24.1203 12.4556 24.1923 12.6276 24.2883 12.8241C24.3603 12.9715 24.4323 13.0698 24.5043 13.0943C24.6483 13.168 24.8883 13.168 24.9843 12.8978C25.0563 12.7013 25.1763 11.3501 24.8403 10.7851C24.4323 10.1218 23.3043 8.89346 22.8243 8.64779C21.8883 8.18103 20.7603 8.89346 20.7603 9.94982C20.7603 13.905 20.7603 15.944 20.7843 16.0177C20.8563 16.6565 21.1683 17.0987 21.6723 17.3935C21.8883 17.5163 22.1763 17.59 22.5363 17.59H22.6563C22.7523 17.59 22.8723 17.59 22.9923 17.59C23.2563 17.59 23.4243 17.7128 23.4963 17.9339C23.5203 18.0076 23.5443 18.6464 23.5203 19.801C23.5203 20.2677 23.5203 20.6117 23.5203 20.8573C23.5203 22.0611 23.4723 22.1839 23.3043 22.577C23.1123 23.0192 22.9203 23.2648 22.1523 23.8053C21.7203 24.1247 21.3363 24.3458 20.9763 24.4686C20.8083 24.5423 20.7363 24.5914 20.7363 24.6651V26.0654C20.7363 26.09 20.7603 26.1391 20.8323 26.1637C20.8323 26.1883 20.8563 26.1883 20.8803 26.2128Z" fill="white"/>
<path d="M8.01562 22.5273V11.3987C8.01562 11.3741 8.49563 10.5634 9.07163 9.92472C9.57563 9.35969 9.95963 8.99119 10.2236 8.86836C11.1596 8.35247 12.2396 9.08946 12.3356 10.0967C12.3596 10.2687 12.3596 12.7253 12.3596 17.4912C12.3596 17.8843 12.3116 18.2036 12.2156 18.4002C11.9516 19.0389 11.4476 19.3828 10.7276 19.3828C9.91163 19.3828 9.50363 19.3828 9.50363 19.3828V24.2961C9.50363 24.3207 9.47963 24.3207 9.45563 24.3452C9.43163 24.3698 9.40763 24.3698 9.35963 24.3698C9.26363 24.3698 8.01562 22.8221 8.01562 22.5273ZM10.4156 10.6863C10.1756 10.9319 9.52763 11.7181 9.52763 11.7672V17.5158V17.7123H10.4876C10.6556 17.7123 10.8716 17.4912 10.8716 17.2701V10.8337C10.8716 10.7354 10.7516 10.6126 10.6316 10.6126C10.5596 10.588 10.4876 10.6126 10.4156 10.6863Z" fill="white"/>
<path d="M9.38402 28.5464H9.36002C9.36002 28.5464 9.16802 28.8167 8.80802 29.3571C8.54402 29.7747 8.40002 29.9958 8.37602 29.9958C8.25602 30.2661 8.28002 30.4626 8.47202 30.6346C8.44802 30.6837 8.42402 30.7328 8.37602 30.8065C8.30402 30.8065 7.44002 30.1678 7.41602 30.1678C7.41602 30.1678 7.44002 30.0941 7.51202 29.9958C7.72802 30.0695 7.94402 29.9713 8.11202 29.7256C8.54402 29.0869 8.85602 28.6447 9.02402 28.399C9.24002 28.1042 9.31202 27.8586 9.21602 27.6866L9.19202 27.6375C9.19202 27.6129 9.21602 27.5638 9.28802 27.5146C9.31202 27.5146 9.45602 27.6129 9.72002 27.8094C9.88802 27.9323 10.008 28.006 10.08 28.0305L10.176 28.0797C10.176 28.0797 10.248 28.3253 10.344 28.8167C10.536 29.7502 10.68 30.2661 10.752 30.3889C10.776 30.3398 10.896 30.0941 11.112 29.6274C11.304 29.1852 11.304 28.9149 11.088 28.7921C11.088 28.7675 11.112 28.7184 11.16 28.6447C11.16 28.6447 11.328 28.7184 11.664 28.8658C11.688 28.8658 11.784 28.9149 11.952 28.9886C12.048 29.0132 12.096 29.0623 12.144 29.0869C12.144 29.136 12.144 29.1606 12.096 29.2097L12.072 29.2589V29.2834C12 29.2343 11.688 29.2097 11.52 29.5782C11.52 29.5782 11.304 30.0941 10.92 31.0768C10.704 31.6172 10.584 31.9366 10.56 31.9857C10.464 31.9612 10.344 31.912 10.2 31.8383L9.38402 28.5464C9.40802 28.5464 9.40802 28.5464 9.38402 28.5464Z" fill="#333333"/>
<path d="M4.51158 25.6726C4.53558 25.6726 4.53558 25.6726 4.51158 25.6726C4.55958 25.7217 4.58358 25.7708 4.58358 25.7954C4.27158 26.0411 4.34358 26.9255 4.89558 27.2448C5.30358 27.4905 5.61558 27.1711 5.59158 26.8763C5.59158 26.7044 5.49558 26.5078 5.32758 26.2622C5.13558 25.9919 5.03958 25.82 5.01558 25.7463C4.77558 25.0584 5.39958 24.3705 6.28758 24.6899C6.91158 24.911 7.41558 25.648 7.51158 26.1148C7.43958 26.1639 6.91158 26.4587 6.81558 26.4833C6.76758 26.4341 6.76758 26.385 6.76758 26.385L6.83958 26.3113C7.07958 26.0656 6.91158 25.2795 6.35958 25.1321C5.97558 25.0093 5.63958 25.4515 6.09558 26.0411C6.28758 26.2867 6.40758 26.4833 6.45558 26.6552C6.69558 27.4414 5.95158 28.1538 4.96758 27.687C4.51158 27.4905 4.17558 27.122 3.93558 26.6307C3.86358 26.4833 3.81558 26.2867 3.76758 26.0411C3.81558 26.0165 3.91158 25.9428 4.12758 25.82C4.39158 25.7463 4.51158 25.6726 4.51158 25.6726Z" fill="#333333"/>
<path d="M13.4164 29.4307C14.3524 29.4552 15.0244 30.1185 15.0484 30.3642C14.9044 30.5607 14.7604 30.7818 14.6164 31.0029C14.5924 31.0029 14.5444 30.9784 14.5204 30.9292C14.6164 30.1431 13.9444 29.357 13.1284 29.9957C12.4804 30.5116 12.2884 31.961 13.0084 32.3786C13.2964 32.5506 13.9444 32.5506 14.3284 31.8382L14.5204 31.8873V31.9119L14.4724 32.6489C13.8964 33.0174 12.5044 32.9191 11.9044 31.789C11.4964 31.0521 11.7604 30.2905 12.1444 29.922C12.4804 29.6026 12.9844 29.4307 13.4164 29.4307Z" fill="#333333"/>
<path d="M15.312 29.7754H15.408H15.528C16.272 29.8491 16.992 29.8491 17.688 29.8C17.832 29.7754 17.904 29.7754 17.904 29.7754C17.952 29.8737 18.216 30.5861 18.216 30.6352C18.12 30.7089 18.048 30.7335 18.048 30.7089L17.976 30.6352C17.76 30.4141 17.496 30.2913 17.208 30.2176C17.088 30.193 16.44 30.0948 16.416 30.3896L16.392 31.2002C16.392 31.2248 16.416 31.2739 16.488 31.2985C16.512 31.3231 16.896 31.3968 17.28 31.1757C17.304 31.1511 17.376 31.102 17.52 30.9791C17.568 30.93 17.592 30.93 17.592 30.9054C17.616 30.8809 17.664 30.8809 17.688 30.9054C17.712 31.2002 17.712 31.4459 17.736 31.6179C17.736 31.7407 17.736 31.8635 17.76 31.9618C17.712 31.9864 17.592 31.9864 17.592 31.9864L17.496 31.9127C17.064 31.4705 16.488 31.5933 16.416 31.7653C16.368 31.839 16.368 32.4777 16.392 32.5514C16.584 33.141 17.784 33.0673 18.408 32.0355C18.432 32.0355 18.48 32.0601 18.528 32.1092C18.528 32.2075 18.456 32.5514 18.312 33.0673C18.192 33.1164 17.76 33.1656 16.992 33.1656C16.2 33.1656 15.168 33.1164 15 33.0427C15 33.0182 15.024 32.969 15.024 32.8953C15.312 32.8708 15.456 32.7234 15.504 32.404C15.6 31.2985 15.648 30.6598 15.648 30.4632C15.624 30.1685 15.528 29.9965 15.336 29.9474C15.288 29.8491 15.312 29.8 15.312 29.7754Z" fill="#333333"/>
<path d="M5.97613 28.6452C5.97613 28.6452 6.00013 28.6452 6.04813 28.6697C6.24013 28.7434 6.43213 28.6943 6.60013 28.4732C6.79213 28.2521 7.15213 27.8345 7.65613 27.2695C7.82413 27.0729 7.94413 26.9255 7.96813 26.8273C7.99213 26.7536 7.99213 26.6799 7.99213 26.6062C7.99213 26.6062 7.96813 26.557 7.94413 26.4588C7.96813 26.4096 8.01613 26.3851 8.04013 26.3359H8.06413L8.13613 26.4096C8.44813 26.7044 8.66413 26.8764 8.78413 26.9992C8.92813 27.1221 9.02413 27.1958 9.04813 27.1958C9.04813 27.2203 9.02413 27.2695 8.95213 27.3186C8.73613 27.294 8.52013 27.4169 8.32813 27.638C8.23213 27.7608 7.94413 28.1047 7.44013 28.6943C7.27213 28.9154 7.15213 29.0382 7.12813 29.1119C7.08013 29.2102 7.05613 29.4804 7.12813 29.5541L7.17613 29.6033C7.20013 29.6278 7.08013 29.7261 7.08013 29.7507C7.00813 29.7507 5.88013 28.768 5.88013 28.7189C5.85613 28.768 5.97613 28.6452 5.97613 28.6452Z" fill="#333333"/>
<path d="M20.6404 29.1357L20.6884 29.2586C20.7365 29.3814 21.3127 31.0028 21.4567 31.3713C21.5527 31.6415 21.6728 31.8381 21.7928 31.9118C21.8889 31.9609 21.9849 31.9609 22.1049 31.9363C22.1049 31.9609 22.1289 31.9855 22.1289 32.0346L22.153 32.0837L22.177 32.1329C21.3847 32.4277 20.8325 32.6242 20.5204 32.6733C20.5204 32.6488 20.4964 32.6242 20.4964 32.5505L20.4724 32.5014H20.4964C20.4964 32.5014 20.6164 32.4522 20.6884 32.354C20.7605 32.2311 20.7605 32.0346 20.6884 31.7889C20.4003 30.8063 20.2323 30.2904 20.2083 30.2412C20.0882 30.0693 19.9442 29.9956 19.7521 30.0693C19.7281 30.0201 19.7041 29.9464 19.7041 29.9219C20.0882 29.6516 20.3523 29.4305 20.4724 29.3077C20.5444 29.2094 20.6164 29.1603 20.6404 29.1357Z" fill="#333333"/>
<path d="M23.352 29.4304L23.664 29.4059C23.88 29.4059 24.6 29.6024 24.408 30.4622C24.144 31.666 22.272 32.1819 22.008 31.1992C21.936 30.929 22.008 30.6588 22.224 30.364C22.272 30.2903 22.296 30.2657 22.296 30.2657C22.272 30.2657 22.2 30.2411 22.08 30.2411C21.096 30.1183 21.264 29.0374 22.008 28.546C22.68 28.1038 23.448 28.2267 23.52 28.8163C23.544 29.0374 23.424 29.2585 23.424 29.283L23.352 29.3813V29.4304ZM23.136 31.2484C23.712 31.2975 24.048 30.5359 23.568 30.2657C23.496 30.2166 23.4 30.2166 23.256 30.2166C23.064 30.2411 22.872 30.2411 22.728 30.2411C22.44 30.6342 22.728 31.1992 23.136 31.2484ZM22.464 29.5287C22.632 29.5287 22.728 29.5041 22.776 29.4796C23.064 28.6689 22.224 28.4723 21.96 29.0128C21.888 29.1848 21.912 29.3322 22.032 29.455C22.128 29.4796 22.272 29.5287 22.464 29.5287Z" fill="#333333"/>
<path d="M24.7439 28.7184H24.6959C24.1919 28.7921 23.9039 28.5956 23.8319 28.178C23.6879 27.4164 24.6479 26.4829 25.4159 26.7285C25.6319 26.8022 25.9199 27.0233 25.7999 27.4655C25.7999 27.4901 25.7759 27.5392 25.7519 27.5884C25.7039 27.6866 25.7039 27.7358 25.7039 27.7358L25.8239 27.6866C26.4479 27.4901 27.2399 27.8586 26.8799 28.8904C26.5199 29.8976 25.0799 30.3889 24.6479 29.7011C24.5039 29.4554 24.5039 29.1606 24.6719 28.8167C24.7439 28.7675 24.7679 28.743 24.7439 28.7184ZM25.7039 29.48C26.2079 29.5537 26.5679 28.9395 26.3039 28.6201C26.1839 28.4727 26.0159 28.4236 25.7999 28.4973L25.7039 28.5219L25.5839 28.5464C25.3919 28.5956 25.2719 28.6201 25.2719 28.6447C25.0799 28.7675 25.1999 29.4063 25.7039 29.48ZM24.6239 28.006C24.6959 28.006 24.8639 28.006 25.0799 27.9323L25.1759 27.9077C25.1999 27.9077 25.2239 27.8832 25.2479 27.8586C25.2719 27.5147 25.1759 27.2936 24.9839 27.1953C24.7919 27.1216 24.3839 27.2444 24.3359 27.6129C24.3119 27.7358 24.3839 27.9569 24.6239 28.006Z" fill="#333333"/>
<path d="M26.6646 24.6641C26.6886 24.6641 27.1686 25.0326 28.0806 25.7941C28.2006 25.8924 28.2966 25.9415 28.3446 25.9661C28.3926 25.8924 28.5366 25.6467 28.4166 25.3028C28.4166 25.2782 28.3926 25.2537 28.3926 25.2045C28.4886 25.1554 28.5366 25.1308 28.5606 25.1308C28.6086 25.2291 28.7046 25.4256 28.8486 25.7204C28.9206 25.8678 28.9686 25.9661 28.9686 26.0152C28.9206 26.0152 28.8966 26.0398 28.8966 26.0398L28.8726 26.0644H28.7766C28.7526 26.0644 28.6086 26.1381 28.6326 26.1872C28.8006 26.3346 28.9206 26.4083 28.9926 26.4329C29.1126 26.4574 29.2326 26.4083 29.3286 26.31C29.3766 26.3346 29.4246 26.3837 29.4486 26.4083C29.4486 26.4329 29.3046 26.654 28.9926 27.047C28.7286 27.391 28.5366 27.612 28.4166 27.7103C28.3926 27.7103 28.3446 27.6612 28.2726 27.5875C28.2726 27.5629 28.2726 27.5629 28.2726 27.5629L28.3206 27.4892C28.3686 27.4401 28.4406 27.2681 28.3686 27.1453C28.3446 27.1207 28.2966 27.0716 28.2246 26.9979C28.1766 26.9488 28.1286 26.8996 28.0566 26.8751H28.0326C27.6486 27.2927 27.3846 27.5875 27.2166 27.7349C27.1206 27.8331 27.0726 27.8823 27.0726 27.8823H27.0486C27.0486 27.8823 26.9286 27.7594 26.9046 27.7349C26.8806 27.7103 26.8566 27.6612 26.8566 27.6366V27.5384C26.8566 27.5138 26.8326 27.4155 26.8086 27.219C26.6166 25.6467 26.5206 24.8606 26.5446 24.836L26.5926 24.7869L26.6406 24.7378C26.6406 24.6886 26.6646 24.6641 26.6646 24.6641ZM27.1446 27.2927H27.1686C27.2886 27.1699 27.4806 26.9733 27.7686 26.654C27.7206 26.5803 27.0006 25.9661 27.0006 25.9661C26.9766 25.9661 26.9766 25.9661 26.9766 25.9661C26.9766 25.9661 27.0006 26.31 27.0966 26.9733C27.1206 27.1453 27.1446 27.2436 27.1446 27.2927Z" fill="#333333"/>
<path d="M4.24845 14.9611C4.24845 14.9611 3.84045 14.912 3.40845 15.1085C3.02444 15.2805 2.85644 15.4033 2.61644 15.821C2.66444 15.3788 2.71245 15.1085 2.78445 14.9611C2.83245 14.8629 2.95245 14.7892 3.02445 14.6909C3.76845 13.7328 3.43245 13.0204 3.16845 12.7256C3.09644 12.7256 2.47244 12.9467 2.30444 13.7574C2.25644 14.0276 2.30444 14.3961 2.40044 14.7155C2.44844 14.8874 2.44844 14.9611 2.42444 15.1577C2.37644 15.5262 2.35244 15.7227 2.32844 15.7473C2.28044 15.2805 1.99244 14.9366 1.70444 14.7155C1.48844 14.5681 1.29644 14.4207 1.05644 14.3715C1.05644 14.3715 0.960443 14.7155 1.29644 15.3788C1.48844 15.7718 1.87244 16.0421 2.28044 16.1895C2.25644 16.6317 2.25644 16.8282 2.28044 16.8528L2.30444 17.5652H2.28044C1.92044 16.4843 0.888443 16.3123 0.696443 16.3123C0.696443 16.3123 0.672442 16.9265 1.22444 17.4915C1.48844 17.7617 1.87244 17.9582 2.32844 18.0811C2.35244 18.7198 2.28044 19.1374 2.44844 19.2603H2.61644C2.64044 19.2603 2.68844 19.2603 2.71244 19.2357C2.71244 19.2111 2.73644 19.162 2.73644 19.0883V18.6952L2.64044 18.0565C2.66444 18.0319 2.73644 18.0074 2.85644 17.9828C3.55245 17.7863 4.15245 17.295 4.34445 16.6071C4.36845 16.5088 4.36845 16.4597 4.36845 16.4597C4.34445 16.4597 3.93645 16.4597 3.57645 16.6562C3.24045 16.8282 2.95244 17.0738 2.76044 17.3932C2.68844 17.4915 2.66444 17.5652 2.64044 17.5897H2.61644C2.59244 17.516 2.56844 16.4597 2.61644 16.2386C3.36045 16.0666 3.60045 15.9684 4.03245 15.4525C4.10445 15.3542 4.27245 14.9611 4.24845 14.9611Z" fill="#333333"/>
<path d="M28.9681 14.9611C28.9681 14.9611 29.3761 14.912 29.8081 15.1085C30.1921 15.2805 30.3601 15.4033 30.6001 15.821C30.5521 15.3788 30.5041 15.1085 30.4321 14.9611C30.3841 14.8629 30.2641 14.7892 30.1921 14.6909C29.4481 13.7328 29.7841 13.0204 30.0481 12.7256C30.1201 12.7256 30.7441 12.9467 30.9121 13.7574C30.9601 14.0276 30.9121 14.3961 30.8161 14.7155C30.7681 14.8874 30.7681 14.9611 30.7921 15.1577C30.8401 15.5262 30.8641 15.7227 30.8881 15.7473C30.9361 15.2805 31.2241 14.9366 31.5121 14.7155C31.7281 14.5681 31.9201 14.4207 32.1601 14.3715C32.1601 14.3715 32.2561 14.7155 31.9201 15.3788C31.7281 15.7718 31.3441 16.0421 30.9361 16.1895C30.9601 16.6317 30.9601 16.8282 30.9601 16.8528L30.9361 17.5652H30.9601C31.3201 16.4843 32.3521 16.3123 32.5441 16.3123C32.5441 16.3123 32.5681 16.9265 32.0161 17.4915C31.7521 17.7617 31.3681 17.9582 30.9121 18.0811C30.8881 18.7198 30.9601 19.1374 30.7921 19.2603H30.6241C30.6001 19.2603 30.5521 19.2603 30.5281 19.2357C30.5281 19.2111 30.5041 19.162 30.5041 19.0883V18.6952L30.6001 18.0565C30.5761 18.0319 30.5041 18.0074 30.3841 17.9828C29.6881 17.7863 29.0881 17.295 28.8961 16.6071C28.8721 16.5088 28.8721 16.4597 28.8721 16.4597C28.8961 16.4597 29.2801 16.4597 29.6641 16.6562C30.0001 16.8282 30.2881 17.0738 30.4801 17.3932C30.5281 17.4915 30.5761 17.5652 30.6001 17.5897H30.6241C30.6481 17.516 30.6721 16.4597 30.6241 16.2386C29.8801 16.0666 29.6401 15.9684 29.2081 15.4525C29.1121 15.3542 28.9201 14.9611 28.9681 14.9611Z" fill="#333333"/>
<path d="M38.2324 5.13379H45.3844V14.1006L52.8724 5.13379H62.4004L53.9764 14.0514L62.7844 28.865H53.9524L49.1044 19.1367L45.3844 23.141V28.865H38.2324V5.13379Z" fill="#333333"/>
<path d="M63.8164 5.13379H70.2484V9.62946H63.8164V5.13379ZM63.8164 11.6685H70.2484V28.865H63.8164V11.6685Z" fill="#333333"/>
<path d="M91.8717 21.8892H78.9596C79.0796 22.9456 79.3676 23.7563 79.7996 24.2722C80.4236 25.0337 81.2397 25.4022 82.2477 25.4022C82.8717 25.4022 83.4957 25.2303 84.0477 24.9109C84.4077 24.7144 84.7677 24.3459 85.1757 23.83L91.5117 24.4196C90.5517 26.1392 89.3757 27.3921 88.0077 28.1291C86.6397 28.8907 84.6717 29.2592 82.1037 29.2592C79.8716 29.2592 78.1196 28.9398 76.8476 28.3011C75.5756 27.6624 74.5196 26.6306 73.6796 25.2303C72.8396 23.83 72.4316 22.184 72.4316 20.2924C72.4316 17.5901 73.2716 15.4283 74.9516 13.7577C76.6316 12.0872 78.9596 11.252 81.9117 11.252C84.3117 11.252 86.2077 11.6205 87.5997 12.382C88.9917 13.119 90.0477 14.1999 90.7917 15.6248C91.5117 17.0496 91.8717 18.8921 91.8717 21.1522V21.8892ZM85.3437 18.7447C85.2237 17.4673 84.8877 16.5337 84.3357 15.9933C83.7837 15.4283 83.0637 15.158 82.1757 15.158C81.1437 15.158 80.3276 15.5757 79.7036 16.4109C79.3196 16.9268 79.0556 17.7129 78.9596 18.7447H85.3437Z" fill="#333333"/>
<path d="M91.7285 11.6699H97.9685L100.657 22.5037L104.113 11.6699H109.873L113.425 22.4792L116.137 11.6699H122.305L116.137 28.8665H110.425L107.017 18.524L103.729 28.8665H97.9685L91.7285 11.6699Z" fill="#333333"/>
<path d="M123.288 5.13379H129.72V9.62946H123.288V5.13379ZM123.288 11.6685H129.72V28.865H123.288V11.6685Z" fill="#333333"/>
<path d="M140.447 5.13379V11.6685H143.975V16.5081H140.447V22.6006C140.447 23.3376 140.519 23.8289 140.663 24.05C140.879 24.4185 141.239 24.5904 141.767 24.5904C142.247 24.5904 143.135 24.3693 143.999 24.0991V28.7667C142.415 29.1107 141.167 29.2581 139.775 29.2581C138.167 29.2581 136.991 29.037 136.223 28.6193C135.455 28.2017 134.903 27.563 134.543 26.7032C134.183 25.8433 133.991 24.4676 133.991 22.5514V16.5081H131.615V11.6685H133.991V8.52397L140.447 5.13379Z" fill="#333333"/>
</svg>
