<svg width="16" height="16" viewBox="0 0 16 16" fill="none" xmlns="http://www.w3.org/2000/svg">
<path fill-rule="evenodd" clip-rule="evenodd" d="M16.0002 16H12.8002V10.4007C12.8002 8.86471 12.1226 8.0079 10.9074 8.0079C9.58497 8.0079 8.80016 8.90071 8.80016 10.4007V16H5.60013V5.59987H8.80016V6.76948C8.80016 6.76948 9.80418 5.00787 12.0666 5.00787C14.3298 5.00787 16.0002 6.38868 16.0002 9.24631C16.0002 12.1031 16.0002 16 16.0002 16ZM1.95362 3.93684C0.874409 3.93684 0 3.05523 0 1.96802C0 0.88161 0.874409 0 1.95362 0C3.03203 0 3.90644 0.88161 3.90644 1.96802C3.90724 3.05523 3.03203 3.93684 1.95362 3.93684ZM0 15.9999H4.00004V5.59978H0V15.9999Z" fill="white"/>
</svg>
