<svg width="76" height="17" viewBox="0 0 76 17" fill="none" xmlns="http://www.w3.org/2000/svg">
<path d="M38.7855 12.8743C38.7855 13.2524 38.6854 13.5625 38.4853 13.8045C37.8235 14.6968 36.9308 15.4076 35.8073 15.9369C34.6837 16.4512 33.414 16.7083 31.998 16.7083C30.7821 16.7083 29.6893 16.5192 28.7197 16.1411C27.2729 15.5815 26.1186 14.6665 25.2567 13.3961C24.3948 12.0803 23.9639 10.5604 23.9639 8.83626C23.9639 7.08189 24.3948 5.5695 25.2567 4.29909C25.5184 3.89074 25.9185 3.4219 26.4572 2.89257C27.0267 2.33298 27.8039 1.8717 28.789 1.50873C29.774 1.14575 30.8437 0.964267 31.998 0.964267C34.6299 0.964267 36.7 1.82633 38.2083 3.55046C38.47 3.82269 38.6085 4.16298 38.6239 4.57132C38.6085 4.96454 38.4776 5.28214 38.2314 5.52413C37.9851 5.76611 37.6696 5.8871 37.2848 5.8871C36.7923 5.85685 36.4075 5.67537 36.1305 5.34264C35.6688 4.75281 35.1763 4.3369 34.653 4.09492C33.8065 3.65632 32.9292 3.43703 32.0211 3.43703C30.482 3.43703 29.2199 3.94368 28.2349 4.95698C27.2653 5.95516 26.7804 7.24825 26.7804 8.83626C26.7804 10.4243 27.2653 11.7249 28.2349 12.7382C29.2199 13.7364 30.482 14.2355 32.0211 14.2355C33.8988 14.2355 35.3302 13.5247 36.3152 12.103C36.5922 11.7552 36.9693 11.5737 37.4464 11.5586C37.862 11.5586 38.1852 11.6796 38.4161 11.9215C38.6623 12.1635 38.7855 12.4811 38.7855 12.8743Z" fill="#6D2DDD"/>
<path d="M40.3545 11.0141C40.3545 10.2125 40.5315 9.35048 40.8854 8.42792C41.2394 7.56586 41.9166 6.81722 42.9171 6.18202C43.9175 5.54681 45.041 5.2519 46.2877 5.29727C48.0577 5.29727 49.4814 5.82661 50.5587 6.88528C50.728 7.06677 50.8819 7.24069 51.0205 7.40705C51.1744 7.57342 51.2975 7.7549 51.3899 7.95152C51.4976 8.133 51.5899 8.28424 51.6669 8.40523C51.7438 8.52622 51.8131 8.69259 51.8747 8.90432C51.9362 9.10093 51.9824 9.24461 52.0132 9.33535C52.044 9.4261 52.0748 9.5849 52.1055 9.81176C52.1363 10.0235 52.1517 10.152 52.1517 10.1974C52.1671 10.2428 52.1825 10.3865 52.1979 10.6284C52.2133 10.8704 52.221 10.999 52.221 11.0141C52.221 11.8459 52.0363 12.708 51.6669 13.6003C51.3283 14.4472 50.6511 15.1959 49.6353 15.8462C48.6195 16.4814 47.5036 16.7688 46.2877 16.7083C44.5177 16.7083 43.0864 16.1865 41.9936 15.1429C41.4549 14.6136 41.0855 14.0994 40.8854 13.6003C40.5315 12.6324 40.3545 11.7703 40.3545 11.0141ZM43.8636 8.54135C43.248 9.17655 42.9402 10.0008 42.9402 11.0141C42.9402 12.0274 43.248 12.8517 43.8636 13.4869C44.4947 14.1069 45.3027 14.417 46.2877 14.417C47.2881 14.417 48.0962 14.1069 48.7118 13.4869C49.3274 12.8517 49.6353 12.0274 49.6353 11.0141C49.6353 9.98568 49.3274 9.16143 48.7118 8.54135C48.0962 7.90614 47.2881 7.58854 46.2877 7.58854C45.3027 7.58854 44.4947 7.90614 43.8636 8.54135Z" fill="#6D2DDD"/>
<path d="M60.644 5.29727C62.1677 5.29727 63.3297 5.7283 64.1301 6.59036C64.9304 7.45243 65.3306 8.70771 65.3306 10.3562V15.2337C65.3306 15.6571 65.2151 15.9899 64.9843 16.2319C64.7688 16.4587 64.461 16.5721 64.0608 16.5721C63.6606 16.5721 63.3451 16.4587 63.1142 16.2319C62.8988 15.9899 62.791 15.6571 62.791 15.2337V10.6284C62.791 9.64539 62.5525 8.89676 62.0753 8.38255C61.5982 7.85321 60.9056 7.58854 59.9975 7.58854C59.0433 7.58854 58.2968 7.89102 57.7581 8.49598C57.2195 9.10093 56.9501 9.92519 56.9501 10.9687V15.2337C56.9501 15.6571 56.8347 15.9899 56.6038 16.2319C56.3883 16.4587 56.0805 16.5721 55.6804 16.5721C55.2802 16.5721 54.9647 16.4587 54.7338 16.2319C54.5183 15.9899 54.4106 15.6571 54.4106 15.2337V6.77185C54.4106 6.34838 54.5183 6.02322 54.7338 5.79636C54.9647 5.55438 55.2802 5.43338 55.6804 5.43338C56.0805 5.43338 56.3883 5.55438 56.6038 5.79636C56.8347 6.02322 56.9501 6.34838 56.9501 6.77185V6.83991H56.9963C57.8428 5.81148 59.0587 5.29727 60.644 5.29727Z" fill="#6D2DDD"/>
<path d="M72.1676 2.57496C71.5674 2.57496 71.0979 2.74889 70.7593 3.09674C70.4361 3.44459 70.2745 3.94368 70.2745 4.59401V5.5695H74.13C74.9611 5.5695 75.3767 5.95516 75.3767 6.72648C75.3767 7.48267 74.9611 7.86077 74.13 7.86077H70.2745V15.2337C70.2745 15.6571 70.1591 15.9899 69.9282 16.2319C69.7127 16.4587 69.4049 16.5721 69.0048 16.5721C68.6046 16.5721 68.2891 16.4587 68.0582 16.2319C67.8427 15.9899 67.735 15.6571 67.735 15.2337V4.66206C67.735 3.28579 68.1121 2.21199 68.8662 1.44067C69.6204 0.669351 70.6747 0.283691 72.0291 0.283691C73.8145 0.283691 75.0765 0.89621 75.8153 2.12125C75.9384 2.36323 76 2.59765 76 2.82451C75.9846 3.56558 75.5998 3.95124 74.8457 3.98149C74.3993 3.96636 74.0761 3.80756 73.876 3.50508C73.4759 2.885 72.9064 2.57496 72.1676 2.57496Z" fill="#6D2DDD"/>
<rect y="1.65332" width="3.42343" height="14.3784" fill="#6D2DDD"/>
<rect x="4.79297" y="1.65332" width="3.42343" height="8.90092" fill="#6D2DDD"/>
<rect x="9.58594" y="1.65332" width="3.42343" height="14.3784" fill="#6D2DDD"/>
<rect x="14.3779" y="5.07666" width="3.42343" height="6.84686" transform="rotate(-90 14.3779 5.07666)" fill="#6D2DDD"/>
</svg>
