<svg width="74" height="16" viewBox="0 0 74 16" fill="none" xmlns="http://www.w3.org/2000/svg">
<path d="M37.7645 12.2593C37.7645 12.6275 37.6671 12.9293 37.4723 13.1649C36.8279 14.0338 35.9587 14.7259 34.8647 15.2413C33.7708 15.742 32.5344 15.9923 31.1557 15.9923C29.9718 15.9923 28.9078 15.8082 27.9637 15.4401C26.555 14.8952 25.4311 14.0043 24.5918 12.7673C23.7526 11.4862 23.333 10.0062 23.333 8.32749C23.333 6.61929 23.7526 5.1467 24.5918 3.90972C24.8466 3.51212 25.2362 3.05562 25.7607 2.54022C26.3152 1.99536 27.072 1.54622 28.0311 1.1928C28.9902 0.839375 30.0318 0.662664 31.1557 0.662664C33.7183 0.662664 35.7339 1.50204 37.2026 3.18079C37.4573 3.44586 37.5922 3.77719 37.6072 4.17479C37.5922 4.55766 37.4648 4.86691 37.225 5.10252C36.9853 5.33813 36.6781 5.45594 36.3034 5.45594C35.8239 5.42649 35.4492 5.24978 35.1795 4.92581C34.7299 4.3515 34.2503 3.94654 33.7408 3.71092C32.9166 3.28387 32.0624 3.07035 31.1782 3.07035C29.6796 3.07035 28.4507 3.56367 27.4916 4.5503C26.5475 5.52221 26.0754 6.78127 26.0754 8.32749C26.0754 9.87371 26.5475 11.1401 27.4916 12.1268C28.4507 13.0987 29.6796 13.5846 31.1782 13.5846C33.0065 13.5846 34.4002 12.8925 35.3593 11.5083C35.629 11.1696 35.9962 10.9929 36.4608 10.9782C36.8654 10.9782 37.1801 11.096 37.4049 11.3316C37.6447 11.5672 37.7645 11.8764 37.7645 12.2593Z" fill="white"/>
<path d="M39.2922 10.448C39.2922 9.66755 39.4646 8.82817 39.8093 7.92989C40.1539 7.09052 40.8133 6.36158 41.7874 5.7431C42.7615 5.12461 43.8555 4.83745 45.0693 4.88163C46.7927 4.88163 48.1789 5.39704 49.228 6.42785C49.3928 6.60456 49.5427 6.77391 49.6775 6.93589C49.8274 7.09788 49.9473 7.27459 50.0372 7.46603C50.1421 7.64274 50.232 7.79 50.307 7.9078C50.3819 8.02561 50.4493 8.18759 50.5093 8.39376C50.5692 8.58519 50.6142 8.72509 50.6441 8.81344C50.6741 8.9018 50.7041 9.05642 50.7341 9.27731C50.764 9.48347 50.779 9.60864 50.779 9.65282C50.794 9.697 50.809 9.83689 50.824 10.0725C50.839 10.3081 50.8465 10.4333 50.8465 10.448C50.8465 11.2579 50.6666 12.0973 50.307 12.9661C49.9773 13.7908 49.3179 14.5197 48.3288 15.1529C47.3397 15.7714 46.2532 16.0512 45.0693 15.9923C43.346 15.9923 41.9523 15.4843 40.8882 14.4682C40.3637 13.9528 40.0041 13.4521 39.8093 12.9661C39.4646 12.0237 39.2922 11.1843 39.2922 10.448ZM42.709 8.04034C42.1096 8.65882 41.8099 9.46138 41.8099 10.448C41.8099 11.4347 42.1096 12.2372 42.709 12.8557C43.3235 13.4595 44.1102 13.7613 45.0693 13.7613C46.0434 13.7613 46.8302 13.4595 47.4296 12.8557C48.0291 12.2372 48.3288 11.4347 48.3288 10.448C48.3288 9.44666 48.0291 8.6441 47.4296 8.04034C46.8302 7.42185 46.0434 7.1126 45.0693 7.1126C44.1102 7.1126 43.3235 7.42185 42.709 8.04034Z" fill="white"/>
<path d="M59.0478 4.88163C60.5314 4.88163 61.6628 5.30132 62.4421 6.1407C63.2214 6.98007 63.611 8.20232 63.611 9.80744V14.5565C63.611 14.9689 63.4986 15.2928 63.2738 15.5285C63.064 15.7493 62.7643 15.8598 62.3747 15.8598C61.985 15.8598 61.6778 15.7493 61.453 15.5285C61.2432 15.2928 61.1383 14.9689 61.1383 14.5565V10.0725C61.1383 9.11533 60.9061 8.38639 60.4415 7.88571C59.9769 7.37031 59.3025 7.1126 58.4184 7.1126C57.4892 7.1126 56.7624 7.40712 56.2379 7.99616C55.7134 8.58519 55.4511 9.38776 55.4511 10.4038V14.5565C55.4511 14.9689 55.3387 15.2928 55.114 15.5285C54.9042 15.7493 54.6044 15.8598 54.2148 15.8598C53.8252 15.8598 53.5179 15.7493 53.2932 15.5285C53.0834 15.2928 52.9784 14.9689 52.9784 14.5565V6.31741C52.9784 5.90508 53.0834 5.58848 53.2932 5.36759C53.5179 5.13197 53.8252 5.01417 54.2148 5.01417C54.6044 5.01417 54.9042 5.13197 55.114 5.36759C55.3387 5.58848 55.4511 5.90508 55.4511 6.31741V6.38367H55.4961C56.3203 5.38231 57.5042 4.88163 59.0478 4.88163Z" fill="white"/>
<path d="M70.2682 2.23097C69.6837 2.23097 69.2266 2.40032 68.8969 2.73902C68.5822 3.07771 68.4249 3.56367 68.4249 4.19688V5.1467H72.1789C72.9881 5.1467 73.3927 5.52221 73.3927 6.27323C73.3927 7.00952 72.9881 7.37767 72.1789 7.37767H68.4249V14.5565C68.4249 14.9689 68.3125 15.2928 68.0877 15.5285C67.8779 15.7493 67.5782 15.8598 67.1885 15.8598C66.7989 15.8598 66.4917 15.7493 66.2669 15.5285C66.0571 15.2928 65.9522 14.9689 65.9522 14.5565V4.26314C65.9522 2.92309 66.3193 1.87755 67.0537 1.12653C67.788 0.37551 68.8145 0 70.1333 0C71.8717 0 73.1005 0.596398 73.8198 1.78919C73.9397 2.02481 73.9997 2.25306 73.9997 2.47395C73.9847 3.19552 73.61 3.57103 72.8757 3.60048C72.4411 3.58575 72.1264 3.43113 71.9316 3.13661C71.542 2.53285 70.9875 2.23097 70.2682 2.23097Z" fill="white"/>
<rect y="1.33301" width="3.33333" height="14" fill="white"/>
<rect x="4.66699" y="1.33398" width="3.33333" height="8.66667" fill="white"/>
<rect x="9.33301" y="1.33398" width="3.33333" height="14" fill="white"/>
<rect x="14" y="4.66699" width="3.33333" height="6.66667" transform="rotate(-90 14 4.66699)" fill="white"/>
</svg>
