<svg width="107" height="104" viewBox="0 0 107 104" fill="none" xmlns="http://www.w3.org/2000/svg">
<g filter="url(#filter0_d_1002_1699)">
<path d="M40.2598 39.0293H44.4849V57.0384H40.2598V39.0293Z" fill="#6D2DDD"/>
<path d="M46.2449 39.0293H50.4701V50.3291H46.2449V39.0293Z" fill="#6D2DDD"/>
<path d="M52.2308 39.0293H56.4559V57.0384H52.2308V39.0293Z" fill="#6D2DDD"/>
<path d="M58.2166 43.267V39.0295L66.6669 39.0295V43.267H58.2166Z" fill="#6D2DDD"/>
<path d="M42.3949 3.1538L42.8121 3.06738C43.0939 3.76414 43.847 4.57971 45.0012 5.16304C45.5593 5.47091 46.0849 5.65455 46.5888 5.73557L46.6159 6.09204C45.6785 6.40531 44.8332 7.17768 44.4214 8.13909C44.2263 8.636 44.1342 9.1005 44.1559 9.565L43.8525 9.63522C43.5328 8.80344 42.6983 8.02027 41.6905 7.62598C41.1703 7.45854 40.6719 7.40453 40.1842 7.46394L40.0596 7.12367C40.9048 6.61596 41.7772 5.47091 42.1294 4.47169C42.3245 3.97478 42.4112 3.53729 42.3949 3.1538Z" fill="#7D00EB"/>
<path d="M25.7767 8.37749L24.396 9.34818C24.396 9.34818 26.1378 11.7433 27.9009 14.1278C29.6534 16.5123 31.4165 18.8863 31.4165 18.8863L32.468 18.1477C32.468 18.1477 30.8005 15.6999 29.1224 13.2626C27.4442 10.8253 25.7767 8.37749 25.7767 8.37749ZM20.3705 12.6084L19.181 13.7163L22.516 17.1348C23.7268 18.3693 23.8543 19.6671 22.8984 20.6694C22.0168 21.6401 21.0291 21.6084 19.9882 20.7327L15.8459 17.2403L14.8263 18.4853L19.2553 21.9777C20.806 23.2016 22.3992 23.1278 23.5781 21.7878C24.4278 20.891 24.5871 19.8675 24.2898 18.939L24.3322 18.8968L25.3412 19.7937L26.1909 19.0023C26.1909 19.0023 24.7358 17.3986 23.2701 15.8054C21.8256 14.2227 20.3705 12.6084 20.3705 12.6084ZM11.6931 22.8851L10.8646 24.2356L17.3223 28.0023L16.3451 29.7749L17.3966 30.3236L18.3525 28.5932L19.6483 29.3529C20.3812 29.796 20.5936 30.408 20.2325 31.041C20.105 31.2626 19.9457 31.4842 19.797 31.6424L20.8591 32.2016C21.0397 31.9906 21.199 31.7902 21.3796 31.4525C22.0381 30.313 21.5814 29.068 20.3174 28.2661L19.0429 27.4748L19.8289 26.272L18.8411 25.6073L18.0339 26.8523L11.6931 22.8851ZM7.96504 29.9648L7.37026 31.4525C7.37026 31.4525 10.3017 32.5815 13.2331 33.6999C16.1752 34.8183 19.096 35.9367 19.096 35.9367L19.5527 34.8288C19.5527 34.8288 16.6531 33.6049 13.7642 32.3916C10.8752 31.1887 7.96504 29.9648 7.96504 29.9648ZM13.1694 43.2907L7.95442 42.5311C6.57367 42.3412 5.80894 41.5498 6.09571 39.9039C6.44621 38.279 7.45522 37.8464 8.79349 38.163L13.9235 39.4185L14.2846 38.1313L8.96343 36.6436C7.05162 36.1161 5.36286 37.34 4.85304 39.6612C4.44944 42.0035 5.54342 43.7761 7.51895 43.9977L13.0101 44.6096L13.1694 43.2907ZM4.00334 52.1114C4.16266 54.1899 5.4372 55.7409 7.041 55.7726L6.84981 54.2743C5.92577 54.1161 5.35224 53.272 5.27789 52.027C5.19292 50.2544 6.31876 49.3259 7.95442 49.3259L8.44299 55.7198L9.14399 55.6143C11.5231 55.2767 13.1588 53.8101 12.9676 51.5416C12.8933 49.0727 10.9283 47.8593 8.41113 47.7749C5.87267 47.7011 3.90775 49.1993 4.00334 52.1114ZM9.15461 49.3365C10.5141 49.3892 11.6187 50.0645 11.6824 51.626C11.8099 53.1032 10.8115 53.905 9.43076 54.0633L9.15461 49.3365ZM5.37347 60.3939L5.75584 61.9766L10.3973 60.7315C12.0754 60.2778 13.2756 60.7948 13.6898 62.1032C14.1147 63.3587 13.6049 64.1817 12.3303 64.6671L7.25342 66.5662L7.85883 68.0645L13.0632 65.9121C14.9113 65.1524 15.6335 63.728 15.0069 62.0504C14.6351 60.8792 13.8067 60.2673 12.8401 60.0774L12.8189 59.993L14.0934 59.5498L13.8279 58.4314C13.8279 58.4314 11.7037 58.9168 9.6007 59.4127C7.48709 59.9086 5.37347 60.3939 5.37347 60.3939ZM11.6506 75.6295C13.0738 77.7503 14.8475 78.0668 16.4195 77.1067L15.5167 75.9039C14.497 76.4631 13.4668 76.136 12.6915 74.9543C11.6718 73.2661 12.5215 71.9261 14.1147 71.0504C15.6654 70.1852 17.2585 70.0692 18.1507 71.5147C18.8199 72.5275 18.6712 73.551 17.779 74.279L18.6181 75.4291C19.9563 74.279 20.4343 72.6225 19.2341 70.8394C18.002 68.7819 15.8247 68.5076 13.4031 69.7421C10.9708 70.9871 10.1318 73.0973 11.6506 75.6295ZM19.2553 84.8617C20.7954 86.2755 22.8028 86.5709 24.003 85.5158L22.8347 84.5346C22.0381 85.0516 21.0503 84.8089 20.1263 83.9543C18.8623 82.6882 19.0535 81.2638 20.2537 80.1454L24.9801 84.524L25.4262 83.9754C26.9344 82.1184 27.1362 79.9343 25.4475 78.415C23.695 76.6424 21.422 77.075 19.5315 78.721C17.609 80.3775 17.2054 82.7937 19.2553 84.8617ZM21.1459 79.354C22.1761 78.4678 23.4507 78.2145 24.5553 79.3224C25.6705 80.3247 25.4793 81.5909 24.5765 82.6354L21.1459 79.354ZM25.936 90.0211L27.2955 90.8968L29.5366 87.3517C30.62 85.6424 31.852 85.0516 33.2221 85.8218L33.7957 86.1383L34.433 84.9461L33.8063 84.6084C32.9354 84.1125 31.937 84.1969 31.1404 84.83L31.0767 84.7984L31.7564 83.5111L30.7899 82.8781C30.7899 82.8781 29.5791 84.6717 28.3683 86.4443C27.1468 88.2274 25.936 90.0211 25.936 90.0211ZM36.8015 95.6764C38.8301 96.3622 40.7632 95.9613 41.188 94.442C41.6022 92.9965 40.9437 92.1524 39.4461 91.2872L38.2353 90.6014C37.3963 90.1161 37.0139 89.5569 37.2688 88.9238C37.5874 88.143 38.4053 88.0059 39.3612 88.3646C40.3277 88.7022 40.9331 89.4197 40.6463 90.4748L41.9634 90.8652C42.4413 89.2087 41.4854 87.8159 39.7648 87.2462C38.0973 86.592 36.6209 87.0668 36.0049 88.3857C35.4844 89.5463 35.8987 90.6542 37.1626 91.4666L38.7451 92.3845C39.6161 92.9015 39.871 93.4607 39.701 94.0094C39.4568 94.8007 38.5327 94.9168 37.2582 94.4842C35.9624 93.9988 35.2826 93.102 35.7394 92.0258L34.348 91.4138C33.5833 93.1758 34.6348 94.8428 36.8015 95.6764ZM76.8857 92.0258L78.2877 91.2556C78.2877 91.2556 77.1087 89.1876 75.9085 87.1196C74.7402 85.0516 73.5506 82.9941 73.5506 82.9941L73.6037 82.9519C73.6037 82.9519 75.4093 84.0809 77.2787 85.1254C79.2117 86.1172 81.1979 87.0246 81.1979 87.0246L81.3678 86.9191C81.3678 86.9191 81.1554 84.7667 80.8792 82.646C80.4862 80.5569 80.0402 78.4994 80.0402 78.4994L80.0932 78.4572C80.0932 78.4572 81.6546 80.2403 83.2265 82.0234C84.7878 83.8066 86.3491 85.6002 86.3491 85.6002L87.5387 84.5346C87.5387 84.5346 85.51 82.3611 83.492 80.1981C81.4634 78.0352 79.4454 75.8722 79.4454 75.8722L78.3408 76.8429L79.8171 84.8406L79.764 84.8933L72.6584 80.8523L71.3414 81.5697C71.3414 81.5697 72.7328 84.1864 74.1135 86.7925C75.4943 89.4091 76.8857 92.0258 76.8857 92.0258ZM93.6034 78.0563C94.8248 76.3576 94.8885 74.3529 93.6565 73.2767L92.8493 74.5639C93.4441 75.2814 93.3378 76.2837 92.5837 77.3072C91.4791 78.6999 90.024 78.6788 88.7708 77.6237L92.5625 72.4537L91.9571 72.0739C89.9285 70.8183 87.7193 70.871 86.4128 72.7175C84.8515 74.6589 85.5525 76.8429 87.4325 78.5205C89.323 80.2087 91.7978 80.3247 93.6034 78.0563ZM87.8679 76.8535C86.8589 75.9461 86.4553 74.7327 87.4325 73.4771C88.2928 72.2849 89.5992 72.3165 90.7357 73.0762L87.8679 76.8535ZM99.6468 67.5791C100.443 65.6272 99.9867 63.6542 98.5634 62.9261L98.0536 64.3505C98.8396 64.9203 98.967 65.9226 98.4891 67.0832C97.7669 68.7081 96.3436 69.0352 94.8673 68.3177L97.2677 62.3775L96.6198 62.1665C94.315 61.4279 92.1908 62.0082 91.3729 64.1184C90.3321 66.3763 91.5641 68.3283 93.7733 69.4994C96.0356 70.6917 98.4466 70.2063 99.6468 67.5791ZM93.7946 67.7902C92.605 67.1571 91.904 66.0387 92.5519 64.6143C93.0935 63.2427 94.3681 62.9578 95.6532 63.422L93.7946 67.7902ZM102.897 56.3529C102.992 55.7409 103.014 55.2134 102.992 54.8968L101.782 54.7491L101.75 54.939C101.771 55.129 101.792 55.4138 101.718 55.8675C101.569 56.7011 101.144 57.0281 100.327 56.8804L95.2284 55.9519L95.5577 53.9473L94.3575 53.789L94.0494 55.7409L91.7659 55.3189L91.734 55.4666L91.9677 56.6166L93.7946 57.007L93.4865 58.3365L94.6549 58.6319L94.9629 57.2814L100.146 58.3998C101.559 58.7268 102.546 58.2626 102.897 56.3529ZM92.3926 18.2532L91.3092 16.9555C91.3092 16.9555 89.3231 18.6753 87.3157 20.374C85.3189 22.0832 83.3221 23.7925 83.3221 23.7925L81.0704 21.408L80.1252 22.3681C80.1252 22.3681 81.4528 23.7397 82.7061 25.1641C83.8957 26.6624 85.0003 28.2028 85.0003 28.2028L86.1261 27.4431L84.1824 24.8265C84.1824 24.8265 86.2323 23.17 88.2928 21.524C90.3533 19.8781 92.3926 18.2532 92.3926 18.2532ZM84.2356 10.0762C82.5468 8.82064 80.5288 8.73623 79.4348 9.91794L80.7093 10.7726C81.4422 10.1923 82.4512 10.3083 83.4602 11.0785C84.8516 12.197 84.8091 13.6424 83.7364 14.8769L78.5745 11.0152L78.1921 11.5956C76.8751 13.6108 76.907 15.8054 78.7444 17.1243C80.6668 18.7175 82.876 18.0528 84.5967 16.2169C86.3385 14.3599 86.4872 11.9226 84.2356 10.0762ZM82.9291 15.7526C82.0051 16.7444 80.7518 17.1137 79.5304 16.1325C78.3408 15.2462 78.3833 13.9695 79.1693 12.8406L82.9291 15.7526ZM73.7843 3.88277C71.4052 2.92263 69.7589 3.62955 68.9836 5.28605L70.4174 5.82415C70.9485 4.79016 71.9894 4.48418 73.2958 5.03283C75.0907 5.85581 75.1332 7.44901 74.3048 9.06331C73.4976 10.6354 72.2443 11.6061 70.683 10.8886C69.589 10.4244 69.1217 9.50645 69.4509 8.39859L68.102 7.9238C67.6453 9.60141 68.1657 11.2474 70.1731 12.0492C72.3505 13.0938 74.326 12.1125 75.6218 9.75967C76.9494 7.37515 76.4502 5.14889 73.7843 3.88277ZM65.8928 1.33998L64.3103 0.97069L63.3119 5.58148C62.9189 7.29074 61.8249 8.12427 60.5079 7.8816C59.2015 7.70223 58.6598 6.8687 58.8191 5.50762L59.4352 0.158266L57.8207 0L57.3534 5.59203C57.1835 7.56507 58.1606 8.85229 59.9343 9.08441C61.1664 9.29543 62.0798 8.84174 62.6852 8.07151L62.749 8.08207L61.6231 13.1676L62.8021 13.4525C62.8021 13.4525 63.5668 10.4244 64.3421 7.39625C65.1068 4.37867 65.8928 1.33998 65.8928 1.33998Z" fill="#7D00EB"/>
<path d="M58.3115 95.6359L57.9004 95.6733C57.6868 94.9524 57.0461 94.0768 55.9676 93.3719C55.4658 93.0035 54.9692 92.7632 54.4834 92.635L54.4994 92.2773C55.4551 92.0797 56.3627 91.4122 56.8859 90.5098C57.1262 90.0453 57.2704 89.6021 57.3024 89.1428L57.6067 89.1055C57.8203 89.9598 58.5464 90.8249 59.4967 91.3215C59.9879 91.5404 60.4791 91.6525 60.9543 91.6418L61.0397 91.9943C60.1427 92.4001 59.1764 93.4413 58.7172 94.3757C58.4663 94.8456 58.3382 95.2568 58.3115 95.6359Z" fill="#7D00EB"/>
<path d="M99.6303 36.2011L99.7223 36.6095C99.0347 36.9145 98.2389 37.6878 97.6704 38.8696C97.3781 39.4251 97.1994 39.9588 97.1398 40.4762L96.7771 40.5034C96.4414 39.5612 95.651 38.7334 94.6765 38.3304C94.1622 38.1507 93.7074 38.069 93.2418 38.0963L93.166 37.7967C93.9943 37.4591 94.7631 36.6041 95.1313 35.5802C95.2937 35.052 95.337 34.5509 95.2666 34.0662L95.5969 33.9355C96.1274 34.7742 97.2968 35.6238 98.3038 35.956C98.8128 36.1357 99.2567 36.2229 99.6303 36.2011Z" fill="#7D00EB"/>
</g>
<defs>
<filter id="filter0_d_1002_1699" x="0" y="0" width="107" height="104" filterUnits="userSpaceOnUse" color-interpolation-filters="sRGB">
<feFlood flood-opacity="0" result="BackgroundImageFix"/>
<feColorMatrix in="SourceAlpha" type="matrix" values="0 0 0 0 0 0 0 0 0 0 0 0 0 0 0 0 0 0 127 0" result="hardAlpha"/>
<feOffset dy="4"/>
<feGaussianBlur stdDeviation="2"/>
<feComposite in2="hardAlpha" operator="out"/>
<feColorMatrix type="matrix" values="0 0 0 0 0 0 0 0 0 0 0 0 0 0 0 0 0 0 0.25 0"/>
<feBlend mode="normal" in2="BackgroundImageFix" result="effect1_dropShadow_1002_1699"/>
<feBlend mode="normal" in="SourceGraphic" in2="effect1_dropShadow_1002_1699" result="shape"/>
</filter>
</defs>
</svg>
