<svg width="32" height="32" viewBox="0 0 32 32" fill="none" xmlns="http://www.w3.org/2000/svg">
<path d="M28.0003 15.3332C28.0003 22.3332 22.3337 27.9998 15.3337 27.9998C8.33366 27.9998 2.66699 22.3332 2.66699 15.3332C2.66699 8.33317 8.33366 2.6665 15.3337 2.6665" stroke="#292D32" stroke-width="1.5" stroke-linecap="round" stroke-linejoin="round"/>
<path d="M29.3337 29.3332L26.667 26.6665" stroke="#292D32" stroke-width="1.5" stroke-linecap="round" stroke-linejoin="round"/>
<path d="M19.3332 8.17328C18.8666 6.70661 19.4132 4.87995 20.9599 4.38661C21.7732 4.11995 22.7732 4.34661 23.3466 5.13328C23.8799 4.31995 24.9199 4.13328 25.7199 4.38661C27.2666 4.87995 27.8132 6.70661 27.3466 8.17328C26.6132 10.5066 24.0532 11.7199 23.3466 11.7199C22.6266 11.7199 20.0932 10.5333 19.3332 8.17328Z" stroke="#292D32" stroke-width="1.5" stroke-linecap="round" stroke-linejoin="round"/>
</svg>
