<svg width="16" height="12" viewBox="0 0 16 12" fill="none" xmlns="http://www.w3.org/2000/svg">
<path fill-rule="evenodd" clip-rule="evenodd" d="M5.032 12C11.0696 12 14.372 7.38274 14.372 3.3791C14.372 3.24766 14.372 3.11696 14.3624 2.987C15.0048 2.55873 15.5592 2.02707 16 1.41862C15.4016 1.66378 14.7656 1.82475 14.1152 1.89564C14.8 1.51683 15.3128 0.921677 15.5584 0.219452C14.9136 0.57241 14.2088 0.821254 13.4736 0.954905C12.2304 -0.264944 10.1512 -0.324016 8.8288 0.823469C7.9768 1.56335 7.6144 2.66653 7.8792 3.71876C5.24 3.59619 2.7808 2.44575 1.1136 0.553212C0.2424 1.93773 0.688 3.70843 2.1304 4.59747C1.608 4.58344 1.0968 4.45348 0.64 4.21867V4.25706C0.6408 5.69917 1.7424 6.94117 3.2736 7.22694C2.7904 7.34877 2.2832 7.36649 1.792 7.27862C2.2216 8.51324 3.4544 9.35872 4.8584 9.38309C3.696 10.2263 2.26 10.6842 0.7816 10.6827C0.5208 10.6819 0.26 10.6679 0 10.6391C1.5016 11.5282 3.248 12 5.032 11.9978" fill="white"/>
</svg>
