<svg width="88" height="38" viewBox="0 0 88 38" fill="none" xmlns="http://www.w3.org/2000/svg">
<path d="M45.1063 28V20.256L53.1703 6.56H48.9783L45.6503 12.48L43.3143 17.376L41.0743 12.448L37.9063 6.56H33.4263L41.4903 20.256V28H45.1063ZM59.8542 28.32C64.3983 28.32 67.4703 25.056 67.4703 20.224C67.4703 15.36 64.3983 12.096 59.8542 12.096C55.3743 12.096 52.3023 15.36 52.3023 20.224C52.3023 25.056 55.3743 28.32 59.8542 28.32ZM59.8863 25.344C57.5823 25.344 55.9823 23.808 55.9823 20.224C55.9823 16.608 57.5823 15.072 59.8863 15.072C62.2223 15.072 63.8223 16.608 63.8223 20.224C63.8223 23.808 62.2223 25.344 59.8863 25.344ZM75.9522 28.32C79.0562 28.32 80.6562 26.208 81.2323 23.744V28H84.8483V12.416H81.2323V21.152C81.2323 23.712 80.3363 25.408 77.7122 25.408C75.3122 25.408 74.6722 24.096 74.6722 22.176V12.416H71.0882V23.264C71.0882 26.496 72.9442 28.32 75.9522 28.32Z" fill="#7D00EB"/>
<path fill-rule="evenodd" clip-rule="evenodd" d="M20 18V20H11V29H9V20H0V18H9V9H11V18H20Z" fill="#7D00EB"/>
</svg>
